<svg xmlns="http://www.w3.org/2000/svg" viewBox="0 0 48 48">
  <path d="M20.472656 5C18.877656 5 17.388938 5.8554219 16.585938 7.2324219L14.388672 11L10.5 11C6.916 11 4 13.916 4 17.5L4 36.5C4 40.084 6.916 43 10.5 43L37.5 43C41.084 43 44 40.084 44 36.5L44 17.5C44 13.916 41.084 11 37.5 11L33.611328 11L31.414062 7.2324219C30.611063 5.8554219 29.122344 5 27.527344 5L20.472656 5 z M 24 17C28.962 17 33 21.037 33 26C33 30.963 28.962 35 24 35C19.038 35 15 30.963 15 26C15 21.037 19.038 17 24 17 z M 24 20 A 6 6 0 0 0 24 32 A 6 6 0 0 0 24 20 z" fill="#011638" />
</svg>